<svg width="490" height="213" viewBox="0 0 490 213" fill="none" xmlns="http://www.w3.org/2000/svg">
<path d="M277.905 91.825C276.715 94.4317 275.553 97.095 274.42 99.815C273.343 102.478 272.238 105.113 271.105 107.72C266.968 97.86 262.803 88.0567 258.61 78.31C254.417 68.5633 250.252 58.7317 246.115 48.815H238.975V45.5H256.06V48.815H249.685C253.142 57.0317 256.57 65.1917 259.97 73.295C263.37 81.3417 266.827 89.4167 270.34 97.52L271.105 99.985C271.842 98.0017 272.663 95.8483 273.57 93.525C274.533 91.2017 275.497 88.935 276.46 86.725C277.877 83.2683 279.322 79.84 280.795 76.44C282.268 72.9833 283.713 69.555 285.13 66.155C283.94 63.265 282.722 60.4033 281.475 57.57C280.285 54.68 279.067 51.7617 277.82 48.815H270.68V45.5H287.68V48.815H281.39C284.79 57.0317 288.19 65.1917 291.59 73.295C294.99 81.3417 298.447 89.4167 301.96 97.52L302.725 99.985L303.49 97.52C306.947 89.4167 310.375 81.3417 313.775 73.295C317.232 65.1917 320.688 57.0317 324.145 48.815H318.28V45.5H335.365V48.815H327.715C323.578 58.7317 319.413 68.5633 315.22 78.31C311.083 88.0567 306.918 97.86 302.725 107.72L287.68 72.275L286.915 69.98C285.555 73.38 284.11 76.9783 282.58 80.775C281.05 84.515 279.492 88.1983 277.905 91.825ZM377.959 105H360.874V101.685H367.419V48.815H360.874V45.5H377.279V48.815H370.904V72.19C370.904 72.6433 370.875 73.0683 370.819 73.465C370.819 73.8617 370.79 74.2867 370.734 74.74L372.349 72.955L397.509 48.815H393.004V45.5H409.409V48.815H402.099L380.679 69.215C384.985 74.655 389.264 80.0667 393.514 85.45C397.764 90.8333 402.014 96.245 406.264 101.685H413.234V105H396.829V101.685H402.014C398.047 96.6417 394.08 91.6267 390.114 86.64C386.204 81.5967 382.265 76.5533 378.299 71.51L370.904 78.565V101.685H377.959V105Z" fill="white"/>
<path d="M13.6193 197L2.31818 159.909H8.30682L16.3239 188.307H16.7102L24.6307 159.909H30.7159L38.5398 188.21H38.9261L46.9432 159.909H52.9318L41.6307 197H36.0284L27.9148 168.506H27.3352L19.2216 197H13.6193ZM66.5048 174.688V197H60.8059V147.545H66.5048V165.705H66.9877C67.857 163.789 69.161 162.268 70.8997 161.141C72.6544 159.998 74.9887 159.426 77.9025 159.426C80.43 159.426 82.6435 159.933 84.5431 160.947C86.4427 161.946 87.9158 163.483 88.9622 165.56C90.0247 167.62 90.5559 170.244 90.5559 173.432V197H84.857V173.818C84.857 170.872 84.0924 168.594 82.563 166.984C81.0498 165.358 78.9489 164.545 76.2605 164.545C74.393 164.545 72.7188 164.94 71.2377 165.729C69.7728 166.518 68.6137 167.669 67.7605 169.182C66.9233 170.695 66.5048 172.53 66.5048 174.688ZM101.322 197V159.909H107.021V197H101.322ZM104.219 153.727C103.109 153.727 102.151 153.349 101.346 152.592C100.557 151.836 100.163 150.926 100.163 149.864C100.163 148.801 100.557 147.892 101.346 147.135C102.151 146.378 103.109 146 104.219 146C105.33 146 106.28 146.378 107.069 147.135C107.874 147.892 108.276 148.801 108.276 149.864C108.276 150.926 107.874 151.836 107.069 152.592C106.28 153.349 105.33 153.727 104.219 153.727ZM133.929 159.909V164.739H114.707V159.909H133.929ZM120.31 151.023H126.009V186.375C126.009 187.985 126.242 189.192 126.709 189.997C127.192 190.786 127.804 191.317 128.544 191.591C129.301 191.848 130.098 191.977 130.935 191.977C131.563 191.977 132.078 191.945 132.48 191.881C132.883 191.8 133.205 191.736 133.446 191.688L134.605 196.807C134.219 196.952 133.68 197.097 132.987 197.241C132.295 197.402 131.418 197.483 130.355 197.483C128.745 197.483 127.168 197.137 125.622 196.445C124.093 195.752 122.821 194.698 121.807 193.281C120.809 191.865 120.31 190.078 120.31 187.92V151.023ZM157.994 197.773C154.42 197.773 151.338 196.984 148.746 195.406C146.17 193.812 144.182 191.591 142.781 188.741C141.397 185.876 140.704 182.544 140.704 178.744C140.704 174.945 141.397 171.597 142.781 168.699C144.182 165.785 146.13 163.515 148.625 161.889C151.136 160.247 154.066 159.426 157.415 159.426C159.347 159.426 161.254 159.748 163.138 160.392C165.021 161.036 166.736 162.082 168.281 163.531C169.827 164.964 171.058 166.864 171.976 169.23C172.893 171.597 173.352 174.51 173.352 177.972V180.386H144.761V175.46H167.557C167.557 173.367 167.138 171.5 166.301 169.858C165.48 168.216 164.305 166.92 162.775 165.97C161.262 165.02 159.475 164.545 157.415 164.545C155.145 164.545 153.181 165.109 151.523 166.236C149.881 167.347 148.617 168.795 147.731 170.582C146.846 172.369 146.403 174.285 146.403 176.33V179.614C146.403 182.415 146.886 184.789 147.852 186.737C148.834 188.669 150.195 190.142 151.933 191.156C153.672 192.154 155.692 192.653 157.994 192.653C159.491 192.653 160.844 192.444 162.051 192.026C163.275 191.591 164.329 190.947 165.214 190.094C166.1 189.224 166.784 188.146 167.267 186.858L172.773 188.403C172.193 190.271 171.219 191.913 169.851 193.33C168.482 194.73 166.792 195.825 164.78 196.614C162.767 197.386 160.506 197.773 157.994 197.773ZM207.139 183.477L207.042 176.426H208.201L224.428 159.909H231.48L214.19 177.392H213.707L207.139 183.477ZM201.826 197V147.545H207.525V197H201.826ZM225.394 197L210.906 178.648L214.963 174.688L232.639 197H225.394ZM253.178 197.773C249.604 197.773 246.522 196.984 243.93 195.406C241.354 193.812 239.366 191.591 237.965 188.741C236.581 185.876 235.889 182.544 235.889 178.744C235.889 174.945 236.581 171.597 237.965 168.699C239.366 165.785 241.314 163.515 243.809 161.889C246.32 160.247 249.25 159.426 252.599 159.426C254.531 159.426 256.438 159.748 258.322 160.392C260.205 161.036 261.92 162.082 263.465 163.531C265.011 164.964 266.242 166.864 267.16 169.23C268.077 171.597 268.536 174.51 268.536 177.972V180.386H239.945V175.46H262.741C262.741 173.367 262.322 171.5 261.485 169.858C260.664 168.216 259.489 166.92 257.96 165.97C256.446 165.02 254.659 164.545 252.599 164.545C250.329 164.545 248.365 165.109 246.707 166.236C245.065 167.347 243.801 168.795 242.916 170.582C242.03 172.369 241.587 174.285 241.587 176.33V179.614C241.587 182.415 242.07 184.789 243.036 186.737C244.018 188.669 245.379 190.142 247.117 191.156C248.856 192.154 250.876 192.653 253.178 192.653C254.675 192.653 256.028 192.444 257.235 192.026C258.459 191.591 259.513 190.947 260.398 190.094C261.284 189.224 261.968 188.146 262.451 186.858L267.957 188.403C267.377 190.271 266.403 191.913 265.035 193.33C263.666 194.73 261.976 195.825 259.964 196.614C257.952 197.386 255.69 197.773 253.178 197.773ZM293.096 197.773C289.523 197.773 286.44 196.984 283.848 195.406C281.272 193.812 279.284 191.591 277.883 188.741C276.499 185.876 275.807 182.544 275.807 178.744C275.807 174.945 276.499 171.597 277.883 168.699C279.284 165.785 281.232 163.515 283.727 161.889C286.238 160.247 289.168 159.426 292.517 159.426C294.449 159.426 296.356 159.748 298.24 160.392C300.123 161.036 301.838 162.082 303.383 163.531C304.929 164.964 306.16 166.864 307.078 169.23C307.996 171.597 308.454 174.51 308.454 177.972V180.386H279.863V175.46H302.659C302.659 173.367 302.24 171.5 301.403 169.858C300.582 168.216 299.407 166.92 297.878 165.97C296.364 165.02 294.577 164.545 292.517 164.545C290.247 164.545 288.283 165.109 286.625 166.236C284.983 167.347 283.719 168.795 282.834 170.582C281.948 172.369 281.506 174.285 281.506 176.33V179.614C281.506 182.415 281.988 184.789 282.954 186.737C283.936 188.669 285.297 190.142 287.035 191.156C288.774 192.154 290.794 192.653 293.096 192.653C294.594 192.653 295.946 192.444 297.153 192.026C298.377 191.591 299.431 190.947 300.317 190.094C301.202 189.224 301.886 188.146 302.369 186.858L307.875 188.403C307.295 190.271 306.321 191.913 304.953 193.33C303.585 194.73 301.894 195.825 299.882 196.614C297.87 197.386 295.608 197.773 293.096 197.773ZM317.463 210.909V159.909H322.969V165.801H323.645C324.064 165.157 324.643 164.336 325.384 163.338C326.14 162.324 327.219 161.422 328.62 160.634C330.036 159.829 331.952 159.426 334.367 159.426C337.49 159.426 340.243 160.207 342.625 161.768C345.008 163.33 346.867 165.544 348.203 168.409C349.54 171.275 350.208 174.655 350.208 178.551C350.208 182.479 349.54 185.884 348.203 188.766C346.867 191.631 345.016 193.853 342.649 195.43C340.283 196.992 337.554 197.773 334.463 197.773C332.081 197.773 330.173 197.378 328.74 196.589C327.308 195.785 326.205 194.875 325.432 193.861C324.659 192.83 324.064 191.977 323.645 191.301H323.162V210.909H317.463ZM323.066 178.455C323.066 181.256 323.476 183.727 324.297 185.868C325.118 187.993 326.318 189.659 327.895 190.866C329.473 192.058 331.405 192.653 333.691 192.653C336.073 192.653 338.061 192.026 339.655 190.77C341.265 189.498 342.472 187.792 343.277 185.651C344.098 183.493 344.509 181.095 344.509 178.455C344.509 175.847 344.106 173.496 343.301 171.403C342.513 169.295 341.313 167.628 339.703 166.405C338.11 165.165 336.105 164.545 333.691 164.545C331.372 164.545 329.425 165.133 327.847 166.308C326.269 167.467 325.078 169.093 324.273 171.186C323.468 173.263 323.066 175.686 323.066 178.455ZM374.792 197.773C371.218 197.773 368.135 196.984 365.543 195.406C362.968 193.812 360.98 191.591 359.579 188.741C358.195 185.876 357.502 182.544 357.502 178.744C357.502 174.945 358.195 171.597 359.579 168.699C360.98 165.785 362.927 163.515 365.423 161.889C367.934 160.247 370.864 159.426 374.212 159.426C376.144 159.426 378.052 159.748 379.936 160.392C381.819 161.036 383.534 162.082 385.079 163.531C386.624 164.964 387.856 166.864 388.774 169.23C389.691 171.597 390.15 174.51 390.15 177.972V180.386H361.559V175.46H384.355C384.355 173.367 383.936 171.5 383.099 169.858C382.278 168.216 381.103 166.92 379.573 165.97C378.06 165.02 376.273 164.545 374.212 164.545C371.943 164.545 369.979 165.109 368.32 166.236C366.678 167.347 365.415 168.795 364.529 170.582C363.644 172.369 363.201 174.285 363.201 176.33V179.614C363.201 182.415 363.684 184.789 364.65 186.737C365.632 188.669 366.992 190.142 368.731 191.156C370.47 192.154 372.49 192.653 374.792 192.653C376.289 192.653 377.641 192.444 378.849 192.026C380.072 191.591 381.127 190.947 382.012 190.094C382.898 189.224 383.582 188.146 384.065 186.858L389.57 188.403C388.991 190.271 388.017 191.913 386.649 193.33C385.28 194.73 383.59 195.825 381.578 196.614C379.565 197.386 377.303 197.773 374.792 197.773ZM399.159 197V159.909H404.665V165.511H405.051C405.727 163.676 406.951 162.187 408.722 161.044C410.492 159.901 412.489 159.33 414.71 159.33C415.129 159.33 415.652 159.338 416.28 159.354C416.908 159.37 417.383 159.394 417.704 159.426V165.222C417.511 165.173 417.069 165.101 416.376 165.004C415.7 164.892 414.984 164.835 414.227 164.835C412.424 164.835 410.814 165.214 409.398 165.97C407.997 166.711 406.886 167.741 406.065 169.061C405.26 170.365 404.858 171.854 404.858 173.528V197H399.159ZM451.073 168.216L445.953 169.665C445.631 168.812 445.156 167.982 444.528 167.178C443.917 166.357 443.08 165.68 442.017 165.149C440.955 164.618 439.594 164.352 437.936 164.352C435.666 164.352 433.775 164.875 432.261 165.922C430.764 166.952 430.016 168.264 430.016 169.858C430.016 171.275 430.531 172.393 431.561 173.214C432.591 174.036 434.201 174.72 436.391 175.267L441.896 176.619C445.213 177.424 447.684 178.656 449.31 180.314C450.936 181.956 451.749 184.073 451.749 186.665C451.749 188.79 451.137 190.689 449.913 192.364C448.706 194.038 447.016 195.358 444.842 196.324C442.669 197.29 440.142 197.773 437.26 197.773C433.477 197.773 430.346 196.952 427.867 195.31C425.387 193.668 423.818 191.269 423.158 188.114L428.567 186.761C429.082 188.758 430.056 190.255 431.489 191.253C432.938 192.251 434.829 192.75 437.163 192.75C439.82 192.75 441.929 192.187 443.49 191.06C445.068 189.917 445.857 188.548 445.857 186.955C445.857 185.667 445.406 184.588 444.504 183.719C443.603 182.833 442.218 182.173 440.351 181.739L434.169 180.29C430.772 179.485 428.277 178.237 426.683 176.547C425.106 174.84 424.317 172.707 424.317 170.148C424.317 168.055 424.904 166.204 426.08 164.594C427.271 162.984 428.889 161.72 430.933 160.803C432.994 159.885 435.328 159.426 437.936 159.426C441.607 159.426 444.488 160.231 446.581 161.841C448.69 163.451 450.187 165.576 451.073 168.216Z" fill="white"/>
<rect x="202" width="4" height="140" fill="white"/>
<path d="M88.2209 98.5C91.0542 98.1667 98.0209 95.7 101.221 90.5" stroke="white" stroke-width="3"/>
<path d="M122.221 98.5C118.721 97.6667 112.221 95.5 109.221 90.5" stroke="white" stroke-width="3"/>
<path d="M89.7209 122.5C90.7209 125 104.221 132 105.221 134" stroke="white" stroke-width="3"/>
<path d="M127.721 82.5H146.721" stroke="white" stroke-width="3"/>
<path d="M80.7209 82.5L67.7209 60" stroke="white" stroke-width="3"/>
<path d="M81.7209 51C83.2209 57.5 90.9209 71.7 105.721 76.5" stroke="white" stroke-width="3"/>
<path d="M128.721 50.5C127.388 56.8333 120.321 70.9 104.721 76.5" stroke="white" stroke-width="3"/>
<path d="M141.721 58.5C106.521 33.3 87.7209 47 68.2209 58.5C71.8209 25.2999 94.3876 9.49998 105.221 6C116.554 9.83331 139.721 26.0999 141.721 58.5Z" stroke="white" stroke-width="3"/>
<path d="M142.221 60.5L129.721 82.5H64.2209" stroke="white" stroke-width="3"/>
<rect x="62.2209" y="81" width="3" height="50" rx="1" fill="white"/>
<rect x="57.2209" y="131" width="2" height="42" rx="1" transform="rotate(-90 57.2209 131)" fill="white"/>
<rect x="110.221" y="131" width="2" height="43" rx="1" transform="rotate(-90 110.221 131)" fill="white"/>
<rect x="57.2209" y="139" width="3" height="96" rx="1" transform="rotate(-90 57.2209 139)" fill="white"/>
<rect x="145.221" y="81" width="3" height="50" rx="1" fill="white"/>
<rect x="116.221" y="68" width="3" height="15" rx="1" fill="white"/>
<rect x="91.2209" y="68" width="3" height="15" rx="1" fill="white"/>
<rect x="150.221" y="129" width="3" height="10" rx="1" fill="white"/>
<rect x="57.2209" y="129" width="3" height="10" rx="1" fill="white"/>
<path d="M105.721 134C105.721 132.5 119.721 124.5 120.221 123" stroke="white" stroke-width="3"/>
<rect x="103.221" y="134.121" width="3" height="3" transform="rotate(-45 103.221 134.121)" fill="white"/>
<rect x="87.2209" y="97" width="3" height="23" fill="white"/>
<rect x="120.221" y="97" width="3" height="23" fill="white"/>
<path d="M88.7209 118.5C88.2209 121.5 91.2209 124 91.2209 124.5" stroke="white" stroke-width="3"/>
<path d="M118.863 124.296C121.221 122.5 121.721 121 121.721 118.5" stroke="white" stroke-width="3"/>
<path d="M99.9233 89.5H110.529L110.221 92H100.221L99.9233 89.5Z" fill="white"/>
<circle cx="75.7209" cy="99.5" r="2.5" fill="white"/>
<circle cx="134.708" cy="99.5" r="2.5" fill="white"/>
<circle cx="76.7209" cy="111.5" r="2.5" fill="white"/>
<circle cx="133.708" cy="111.5" r="2.5" fill="white"/>
<circle cx="78.7209" cy="120.5" r="2.5" fill="white"/>
<circle cx="131.708" cy="120.5" r="2.5" fill="white"/>
<path d="M78.2209 111.5H88.7209" stroke="white" stroke-width="3"/>
<path d="M121.708 111.5H133.708" stroke="white" stroke-width="3"/>
<rect x="121.208" y="101" width="6" height="3" rx="1.5" fill="white"/>
<rect x="83.2209" y="101" width="6" height="3" rx="1.5" fill="white"/>
<rect x="126.208" y="98" width="8" height="3" rx="1" fill="white"/>
<rect x="76.2209" y="98" width="8" height="3" rx="1" fill="white"/>
<rect x="124.118" y="102.74" width="5.62287" height="3" rx="1" transform="rotate(-62 124.118 102.74)" fill="white"/>
<rect x="83.8698" y="98" width="5.62287" height="3" rx="1" transform="rotate(62 83.8698 98)" fill="white"/>
<rect x="78.2209" y="119" width="8" height="3" rx="1.5" fill="white"/>
<rect x="124.208" y="119" width="8" height="3" rx="1.5" fill="white"/>
<path d="M84.4426 121.589C83.442 121.06 83.3724 119.653 84.3161 119.029L87.6434 116.826C88.333 116.37 89.262 116.559 89.7184 117.249C90.176 117.94 89.9847 118.871 89.2917 119.327L85.9566 121.517C85.5027 121.815 84.9227 121.843 84.4426 121.589Z" fill="white"/>
<path d="M120.657 118.449C120.75 117.346 121.991 116.746 122.914 117.357L125.879 119.319C126.669 119.842 126.677 121 125.894 121.533C125.474 121.819 124.928 121.842 124.487 121.592L121.391 119.841C120.896 119.56 120.609 119.017 120.657 118.449Z" fill="white"/>
<rect x="97.2209" y="108" width="3" height="13" rx="1" fill="white"/>
<rect x="110.221" y="108" width="3" height="13" rx="1" fill="white"/>
<rect x="97.2209" y="121" width="2" height="16" rx="1" transform="rotate(-90 97.2209 121)" fill="white"/>
<path d="M98.8389 122C98.4601 122 98.1139 121.786 97.9445 121.447L97.2209 120H113.221L112.497 121.447C112.328 121.786 111.982 122 111.603 122H98.8389Z" fill="white"/>
<rect x="97.2209" y="110" width="2" height="16" rx="1" transform="rotate(-90 97.2209 110)" fill="white"/>
<path d="M98.2209 108C98.2209 107.448 98.6686 107 99.2209 107H111.221C111.773 107 112.221 107.448 112.221 108H98.2209Z" fill="white"/>
<rect x="103.221" y="112" width="4" height="5" rx="1" fill="white"/>
<rect x="104.221" y="109" width="2" height="5" rx="1" fill="white"/>
<rect x="100.221" y="101" width="3" height="7" rx="1" fill="white"/>
<path d="M101.608 103C100.926 103 100.444 102.331 100.66 101.684L100.993 100.684C101.129 100.275 101.511 100 101.942 100H108.5C108.931 100 109.313 100.275 109.449 100.684L109.782 101.684C109.998 102.331 109.516 103 108.833 103H101.608Z" fill="white"/>
<rect x="107.221" y="101" width="3" height="7" rx="1" fill="white"/>
<path d="M71.2209 67C64.8209 69 60.2209 72.5 58.7209 74C53.7209 83.5 43.6209 103.6 43.2209 108C42.8209 112.4 43.0542 116.167 43.2209 117.5C44.7209 121 49.7209 128.9 57.7209 132.5" stroke="white" stroke-width="3"/>
<path d="M138.721 67C146.321 69.4 148.888 71 149.221 71.5C151.721 73.8333 158.821 84.4 167.221 108" stroke="white" stroke-width="3"/>
<path d="M152.221 132C172.221 124 168.221 107.5 164.221 100" stroke="white" stroke-width="3"/>
</svg>
